<svg width="35" height="30" viewBox="0 0 35 30" fill="none" xmlns="http://www.w3.org/2000/svg">
<path d="M2.93586 1.73692C3.61588 1.66098 4.28375 1.95256 4.67004 2.49401C7.38785 6.30357 10.6522 7.88834 14.2743 8.24889C14.4521 6.76448 14.8702 5.29779 15.6563 4.00648C16.8092 2.11185 18.6845 0.716997 21.3633 0.201576C25.0648 -0.51064 27.8832 0.773502 29.5187 2.34618L32.8193 1.75509C33.5245 1.62885 34.2418 1.90608 34.6581 2.46562C35.0743 3.02515 35.1137 3.76525 34.7589 4.36243L31.5914 9.69537C31.8802 17.3917 29.6476 22.7628 24.8874 26.4633C22.3623 28.4262 18.749 29.5395 14.7827 29.8832C10.7855 30.2296 6.26711 29.8107 1.77547 28.5543C0.98745 28.3339 0.446791 27.6405 0.449702 26.8542C0.452594 26.0677 0.998337 25.3781 1.78796 25.1629C4.04678 24.5476 5.76602 24.0156 7.32011 23.0865C5.11242 21.9636 3.48573 20.4958 2.33443 18.8224C0.734252 16.4964 0.140892 13.9034 0.0230889 11.5647C-0.0946953 9.22622 0.258068 7.06034 0.629602 5.49716C0.841094 4.60731 1.08812 3.71332 1.42862 2.85931C1.67592 2.2438 2.25587 1.81287 2.93586 1.73692Z" fill="white"/>
</svg>
